<svg width="40" height="40" viewBox="0 0 40 40" fill="none" xmlns="http://www.w3.org/2000/svg">
<path d="M8.33334 35V8.33334C8.33334 7.41667 8.66001 6.63167 9.31334 5.97834C9.96668 5.325 10.7511 4.99889 11.6667 5H23.3333C22.7778 5.83334 22.3611 6.63223 22.0833 7.39667C21.8056 8.16111 21.6667 9.02889 21.6667 10C21.6667 12 22.2983 13.7639 23.5617 15.2917C24.825 16.8194 26.4156 17.7778 28.3333 18.1667C28.9722 18.25 29.5278 18.2917 30 18.2917C30.4722 18.2917 31.0278 18.25 31.6667 18.1667V35L20 30L8.33334 35ZM28.3333 15V11.6667H25V8.33334H28.3333V5H31.6667V8.33334H35V11.6667H31.6667V15H28.3333Z" fill="white"/>
</svg>
