<svg width="40" height="40" viewBox="0 0 40 40" fill="none" xmlns="http://www.w3.org/2000/svg">
<path d="M8.33334 34.456V8.33334C8.33334 7.41667 8.66001 6.63167 9.31334 5.97834C9.96668 5.325 10.7511 4.99889 11.6667 5H22.7366C22.6299 5.16762 22.5285 5.33429 22.4324 5.5H23.0142C22.6154 6.15418 22.3051 6.7864 22.0833 7.39667C21.8056 8.16111 21.6667 9.02889 21.6667 10C21.6667 12 22.2983 13.7639 23.5617 15.2917C24.825 16.8194 26.4156 17.7778 28.3333 18.1667L8.33334 34.456ZM8.33334 34.456V35L8.83334 34.7857V34.2417L8.33334 34.456ZM31.1667 34.2417V34.7857L31.6667 35V34.456L31.1667 34.2417ZM31.1667 18.2251C31.3272 18.2087 31.4939 18.1892 31.6667 18.1667V18.6708C31.4947 18.6927 31.328 18.7117 31.1667 18.7277V18.2251ZM31.1667 11.6667V14.5H28.8333V11.6667V11.1667H28.3333H25.5V8.83334H28.3333H28.8333V8.33334V5.5H31.1667V8.33334V8.83334H31.6667H34.5V11.1667H31.6667H31.1667V11.6667Z" stroke="white"/>
</svg>
