<svg width="70" height="55" viewBox="0 0 70 55" fill="none" xmlns="http://www.w3.org/2000/svg">
<rect x="0.5" y="0.5" width="69" height="54" rx="9.5" fill="#ACACAC" stroke="#ACACAC"/>
<path d="M23.3333 42.456V16.3333C23.3333 15.4167 23.66 14.6317 24.3133 13.9783C24.9667 13.325 25.7511 12.9989 26.6667 13H37.7366C37.6299 13.1676 37.5285 13.3343 37.4324 13.5H38.0142C37.6154 14.1542 37.3051 14.7864 37.0833 15.3967C36.8056 16.1611 36.6667 17.0289 36.6667 18C36.6667 20 37.2983 21.7639 38.5617 23.2917C39.825 24.8194 41.4156 25.7778 43.3333 26.1667L23.3333 42.456ZM23.3333 42.456V43L23.8333 42.7857V42.2417L23.3333 42.456ZM46.1667 42.2417V42.7857L46.6667 43V42.456L46.1667 42.2417ZM46.1667 26.2251C46.3272 26.2087 46.4939 26.1892 46.6667 26.1667V26.6708C46.4947 26.6927 46.328 26.7117 46.1667 26.7277V26.2251ZM46.1667 19.6667V22.5H43.8333V19.6667V19.1667H43.3333H40.5V16.8333H43.3333H43.8333V16.3333V13.5H46.1667V16.3333V16.8333H46.6667H49.5V19.1667H46.6667H46.1667V19.6667Z" stroke="white"/>
</svg>
