<svg width="41" height="41" viewBox="0 0 41 41" fill="none" xmlns="http://www.w3.org/2000/svg">
<path d="M15.5885 36.0458L1.19583 21.6958C1.025 21.525 0.903707 21.3399 0.831957 21.1406C0.760207 20.9413 0.724901 20.7278 0.72604 20.5C0.72604 20.2722 0.761915 20.0587 0.833665 19.8594C0.905415 19.6601 1.02614 19.475 1.19583 19.3042L15.5885 4.91145C15.9872 4.51284 16.4854 4.31354 17.0833 4.31354C17.6812 4.31354 18.1937 4.52708 18.6208 4.95416C19.0479 5.38125 19.2615 5.87951 19.2615 6.44895C19.2615 7.0184 19.0479 7.51666 18.6208 7.94375L6.06458 20.5L18.6208 33.0562C19.0194 33.4549 19.2188 33.9463 19.2188 34.5305C19.2188 35.1148 19.0052 35.6199 18.5781 36.0458C18.151 36.4729 17.6528 36.6865 17.0833 36.6865C16.5139 36.6865 16.0156 36.4729 15.5885 36.0458Z" fill="black"/>
</svg>
